<svg width="32" height="32" viewBox="0 0 32 32" fill="none" xmlns="http://www.w3.org/2000/svg">
<path fill-rule="evenodd" clip-rule="evenodd" d="M8.5 12C8.77614 12 9 12.2239 9 12.5V13.8991C9 14.4591 9 14.7391 9.10898 14.953C9.20485 15.1412 9.35782 15.2942 9.54596 15.3901C9.75986 15.4991 10.0399 15.4991 10.5999 15.4991L21.3999 15.4999C21.96 15.4999 22.24 15.4999 22.4539 15.391C22.6421 15.2951 22.7951 15.1421 22.891 14.9539C23 14.74 23 14.46 23 13.8999V12.5C23 12.2239 23.2239 12 23.5 12C23.7761 12 24 12.2239 24 12.5V19.4999C24 19.7761 23.7761 20 23.4999 20C23.2238 20 22.9999 19.7762 22.9999 19.5001L22.9995 18.0994C22.9993 17.5396 22.9992 17.2596 22.8902 17.0458C22.7943 16.8577 22.6414 16.7048 22.4532 16.6089C22.2394 16.4999 21.9594 16.4999 21.3996 16.4999L10.5996 16.4991C10.0393 16.4991 9.75922 16.4991 9.54526 16.6081C9.35706 16.704 9.20406 16.857 9.1082 17.0452C8.99922 17.2592 8.9993 17.5393 8.99946 18.0996L8.99986 19.4999C8.99994 19.7761 8.77609 20 8.49993 20C8.22383 20 8 19.7762 8 19.5001V12.5C8 12.2239 8.22386 12 8.5 12Z" fill="white" fill-opacity="0.6"/>
</svg>
