<svg width="32" height="32" viewBox="0 0 32 32" fill="none" xmlns="http://www.w3.org/2000/svg">
<path fill-rule="evenodd" clip-rule="evenodd" d="M12 22.5C12 22.2238 12.2239 22 12.5 22H13.8991C14.4591 22 14.7391 22 14.953 21.891C15.1412 21.7951 15.2942 21.6422 15.3901 21.454C15.4991 21.2401 15.4991 20.9601 15.4991 20.4001L15.4999 11.6001C15.4999 11.04 15.4999 10.76 15.391 10.546C15.2951 10.3578 15.1421 10.2049 14.9539 10.109C14.74 9.99997 14.46 9.99997 13.8999 9.99997H12.5C12.2239 9.99997 12 9.77611 12 9.49997C12 9.22383 12.2239 8.99997 12.5 8.99997H19.4999C19.7761 8.99997 20 9.22386 20 9.50004C20 9.77617 19.7762 10 19.5001 10.0001L18.0994 10.0005C17.5396 10.0007 17.2596 10.0008 17.0458 10.1098C16.8577 10.2056 16.7048 10.3586 16.6089 10.5467C16.4999 10.7606 16.4999 11.0405 16.4999 11.6004L16.4991 20.4004C16.4991 20.9606 16.4991 21.2407 16.6081 21.4547C16.704 21.6429 16.857 21.7959 17.0452 21.8918C17.2592 22.0008 17.5393 22.0007 18.0996 22.0005L19.4999 22.0001C19.7761 22 20 22.2239 20 22.5C20 22.7761 19.7762 23 19.5001 23H12.5C12.2239 23 12 22.7761 12 22.5Z" fill="white" fill-opacity="0.6"/>
</svg>
